<svg width="24" height="24" viewBox="0 0 24 24" fill="none" xmlns="http://www.w3.org/2000/svg">
<g clip-path="url(#clip0_646_5194)">
<path fill-rule="evenodd" clip-rule="evenodd" d="M3.46799 16.745C3.96199 15.787 5.00699 15.145 6.27199 15.304C7.48599 15.456 8.85999 15.684 10.242 16.03C12.489 16.592 14.423 17.73 15.755 18.684L16.155 18.979L16.339 19.119L16.675 19.385L16.966 19.625L17.313 19.927C18.157 20.678 17.583 21.905 16.629 21.995L16.517 22H7.92199C7.21488 22 6.51581 21.8499 5.87095 21.5598C5.22609 21.2697 4.65009 20.8461 4.18099 20.317L4.01799 20.123L3.81799 19.874C3.04499 18.907 2.97999 17.691 3.46799 16.745ZM6.02399 17.288C5.62399 17.238 5.37099 17.419 5.24499 17.662C5.1788 17.7957 5.14895 17.9444 5.15843 18.0932C5.1679 18.2421 5.21638 18.3858 5.29899 18.51L5.37999 18.625L5.57999 18.875C5.84059 19.2006 6.16621 19.4682 6.53605 19.6609C6.90589 19.8536 7.31185 19.967 7.72799 19.994L7.92199 20H14.143C12.993 19.227 11.466 18.397 9.75699 17.97C8.5273 17.669 7.28075 17.4406 6.02399 17.288ZM19 2C19.62 2 20.074 2.338 20.36 2.704C20.633 3.051 20.81 3.484 20.933 3.9C21.183 4.743 21.3 5.827 21.345 6.909C21.382 7.82 21.369 8.78501 21.322 9.68501L21.28 10.345C21.21 11.313 21.1 12.16 20.976 12.717C20.443 15.115 19.511 16.564 18.468 17.354C17.469 18.11 16.311 18.274 15.553 17.894C15.222 17.729 14.901 17.432 14.635 17.124C14.3152 16.7484 14.0459 16.3325 13.834 15.887C13.368 14.912 13.081 13.594 13.551 12.184C13.842 11.311 14.403 10.767 14.897 10.36L15.215 10.104C15.778 9.656 16.246 9.27201 16.605 8.55301C16.698 8.36701 16.766 7.993 16.782 7.358L16.785 7.055L16.777 6.309C16.772 6.009 16.767 5.692 16.77 5.385C16.777 4.735 16.818 3.965 17.07 3.338C17.204 3.005 17.418 2.657 17.767 2.393C18.1234 2.12966 18.5569 1.9915 19 2ZM18.903 4.15C18.82 4.402 18.776 4.81 18.77 5.405V5.687L18.779 6.376C18.784 6.711 18.789 7.064 18.781 7.406C18.765 8.04801 18.705 8.826 18.394 9.447C17.959 10.319 17.401 10.884 16.904 11.307L16.614 11.547L16.461 11.668C15.866 12.142 15.592 12.385 15.449 12.816C15.185 13.606 15.329 14.379 15.639 15.024C15.792 15.347 15.979 15.619 16.152 15.82C16.232 15.914 16.301 15.981 16.351 16.026L16.426 16.09L16.521 16.086C16.654 16.075 16.915 16.022 17.261 15.76C17.808 15.345 18.557 14.385 19.024 12.283C19.066 12.092 19.108 11.847 19.147 11.562L19.203 11.105C19.213 11.025 19.221 10.942 19.229 10.857L19.276 10.327L19.315 9.759L19.331 9.464L19.354 8.858C19.3732 8.23578 19.3708 7.61307 19.347 6.991C19.304 5.964 19.195 5.074 19.015 4.468C18.984 4.35955 18.9466 4.25403 18.903 4.15Z" fill="#E6262B"/>
<path d="M6.64941 1.99963V8.98407" stroke="#E6262B" stroke-width="1.8" stroke-linecap="round"/>
<path d="M10.1416 5.49194L3.15717 5.49194" stroke="#E6262B" stroke-width="1.8" stroke-linecap="round"/>
</g>
<defs>
<clipPath id="clip0_646_5194">
<rect width="24" height="24" fill="white"/>
</clipPath>
</defs>
</svg>
